<svg width="12" height="12" viewBox="0 0 12 12" fill="none" xmlns="http://www.w3.org/2000/svg">

<path d="M11.7985 5.36452L6.41446 0.458638C6.17814 0.243272 5.82177 0.243295 5.58554 0.458615L0.201516 5.36454C0.0122119 5.53704 -0.0503192 5.80282 0.042165 6.04163C0.134673 6.28043 0.359907 6.43472 0.616008 6.43472H1.47593V11.35C1.47593 11.5449 1.63394 11.7029 1.82883 11.7029H4.77993C4.97481 11.7029 5.13283 11.545 5.13283 11.35V8.36562H6.86724V11.3501C6.86724 11.545 7.02526 11.703 7.22014 11.703H10.1711C10.366 11.703 10.524 11.545 10.524 11.3501V6.43472H11.3841C11.6402 6.43472 11.8654 6.28041 11.9579 6.04163C12.0503 5.8028 11.9878 5.53704 11.7985 5.36452Z" fill="currentColor"/>
<path d="M10.432 1.00146H8.06201L10.7849 3.4773V1.35434C10.7849 1.15946 10.6269 1.00146 10.432 1.00146Z" fill="currentColor"/>


</svg>
