<svg width="21" height="21" viewBox="0 0 21 21" fill="none" xmlns="http://www.w3.org/2000/svg">
<path d="M10.7674 2.47835C9.37016 2.49722 6.36381 2.72658 4.68209 4.26749C3.43369 5.50864 2.99747 7.33843 2.94666 9.60443C2.90311 11.8617 2.8523 16.1005 6.93866 17.2553V19.0118C6.93866 19.0118 6.91108 19.7158 7.37561 19.861C7.949 20.0424 8.27562 19.4988 8.81998 18.9181L9.83613 17.7713C12.6305 18.0036 14.7717 17.4672 15.0185 17.3874C15.5846 17.2059 18.7789 16.7987 19.3015 12.5592C19.8386 8.18183 19.0402 5.42372 17.6031 4.17531L17.5959 4.17386C17.1604 3.77466 15.4184 2.50448 11.5208 2.48996C11.5208 2.48996 11.2333 2.47182 10.7674 2.47835ZM10.816 3.71006C11.2116 3.70788 11.4547 3.72458 11.4547 3.72458C14.7499 3.73184 16.3257 4.72621 16.6958 5.06008C17.908 6.09728 18.5307 8.58466 18.0749 12.2399C17.6394 15.7819 15.0482 16.0069 14.5692 16.1593C14.366 16.2246 12.4788 16.6892 10.104 16.5367C10.104 16.5367 8.33369 18.6714 7.78206 19.223C7.69497 19.3173 7.59335 19.3464 7.52803 19.3319C7.43367 19.3101 7.40464 19.194 7.4119 19.0343L7.42641 16.1172C3.96353 15.1591 4.16676 11.5431 4.20305 9.65597C4.2466 7.76884 4.60225 6.22139 5.65469 5.17622C7.07512 3.89152 9.62855 3.71732 10.8153 3.71006H10.816ZM11.0773 5.59719C11.0487 5.59709 11.0204 5.60264 10.994 5.6135C10.9676 5.62436 10.9436 5.64034 10.9234 5.6605C10.9031 5.68066 10.8871 5.70461 10.8761 5.73099C10.8652 5.75737 10.8595 5.78565 10.8595 5.81421C10.8595 5.87196 10.8825 5.92734 10.9233 5.96818C10.9641 6.00901 11.0195 6.03196 11.0773 6.03196C11.6169 6.02166 12.1532 6.11834 12.6552 6.31642C13.1573 6.5145 13.6151 6.81004 14.0023 7.18601C14.7935 7.95537 15.1789 8.98604 15.1934 10.3361C15.1934 10.3647 15.199 10.393 15.21 10.4194C15.2209 10.4458 15.237 10.4698 15.2572 10.49C15.2774 10.5102 15.3014 10.5263 15.3278 10.5372C15.3542 10.5482 15.3825 10.5538 15.4111 10.5538V10.5473C15.4689 10.5473 15.5243 10.5243 15.5651 10.4835C15.6059 10.4427 15.6289 10.3873 15.6289 10.3295C15.6558 9.69464 15.5532 9.06092 15.3274 8.46696C15.1015 7.873 14.7571 7.33122 14.3152 6.87463C13.4514 6.03268 12.3613 5.59719 11.0766 5.59719H11.0773ZM8.20739 6.098C8.05304 6.07601 7.89578 6.10669 7.76102 6.1851H7.75231C7.45472 6.3593 7.18036 6.57704 6.91907 6.86737C6.7231 7.09963 6.6135 7.33117 6.58446 7.55617C6.56739 7.68814 6.57978 7.82225 6.62075 7.94884L6.63527 7.9561C6.85899 8.6138 7.15091 9.24628 7.50625 9.84323C7.96687 10.6792 8.53278 11.4527 9.19015 12.1448L9.21193 12.1738L9.24096 12.1956L9.26273 12.2174L9.28451 12.2392C9.97928 12.8982 10.7548 13.4664 11.5926 13.9303C12.5507 14.4529 13.1328 14.6997 13.4812 14.8013V14.8086C13.5828 14.8376 13.6757 14.8521 13.7701 14.8521C14.0675 14.8304 14.349 14.7098 14.5699 14.5095C14.853 14.2555 15.078 13.9739 15.2449 13.6763V13.669C15.4119 13.3569 15.3538 13.0586 15.1143 12.8554C14.6316 12.4331 14.1089 12.0587 13.5538 11.7376C13.1836 11.5344 12.8062 11.6578 12.6538 11.861L12.3271 12.274C12.1602 12.4772 11.8554 12.4482 11.8554 12.4482L11.8466 12.4555C9.58209 11.8748 8.97967 9.58193 8.97967 9.58193C8.97967 9.58193 8.95063 9.26983 9.16112 9.11015L9.56758 8.78353C9.76355 8.62385 9.90145 8.24643 9.69097 7.87626C9.37027 7.32082 8.99589 6.79815 8.57321 6.31575C8.48126 6.20172 8.35146 6.12446 8.20739 6.098ZM11.454 6.74398C11.3962 6.74418 11.3409 6.7673 11.3002 6.80827C11.2595 6.84924 11.2368 6.90471 11.237 6.96245C11.2372 7.0202 11.2603 7.07551 11.3013 7.11621C11.3422 7.15691 11.3977 7.17967 11.4554 7.17947C12.1818 7.19208 12.8735 7.49226 13.3789 8.01417C13.6068 8.26567 13.7821 8.56032 13.8943 8.88071C14.0065 9.2011 14.0534 9.54072 14.0321 9.87952C14.0323 9.93714 14.0553 9.99234 14.0961 10.033C14.1369 10.0737 14.1922 10.0965 14.2498 10.0965L14.2571 10.1052C14.2857 10.1052 14.3141 10.0996 14.3406 10.0886C14.3671 10.0776 14.3911 10.0615 14.4113 10.0412C14.4315 10.0209 14.4476 9.99683 14.4585 9.97033C14.4694 9.94383 14.4749 9.91543 14.4748 9.88678C14.4966 9.02305 14.2281 8.29724 13.6982 7.71658C13.1684 7.13593 12.428 6.80931 11.4845 6.74398C11.4743 6.74327 11.4641 6.74327 11.454 6.74398ZM11.8096 7.91908C11.7805 7.91823 11.7515 7.92311 11.7243 7.93346C11.697 7.94381 11.6721 7.95943 11.6509 7.97941C11.6297 7.99939 11.6127 8.02336 11.6007 8.04993C11.5888 8.07651 11.5822 8.10517 11.5814 8.13429C11.5805 8.16341 11.5854 8.19241 11.5957 8.21964C11.6061 8.24687 11.6217 8.2718 11.6417 8.29299C11.6617 8.31419 11.6856 8.33124 11.7122 8.34318C11.7388 8.35512 11.7674 8.3617 11.7966 8.36256C12.5151 8.39885 12.8635 8.76176 12.9071 9.50935C12.909 9.56583 12.9327 9.61937 12.9734 9.65865C13.014 9.69793 13.0683 9.71987 13.1248 9.71984H13.1321C13.1613 9.71893 13.1901 9.71214 13.2166 9.69987C13.2432 9.6876 13.267 9.6701 13.2867 9.64842C13.3063 9.62674 13.3214 9.60133 13.331 9.57369C13.3406 9.54606 13.3445 9.51677 13.3426 9.48758C13.2918 8.51498 12.7619 7.96989 11.8183 7.91908C11.8154 7.91903 11.8125 7.91903 11.8096 7.91908Z" fill="#664EF9"/>
</svg>
