<svg width="21" height="21" viewBox="0 0 21 21" fill="none" xmlns="http://www.w3.org/2000/svg">
<path d="M16.156 4.87929C15.3848 4.10244 14.4669 3.48655 13.4556 3.06738C12.4444 2.64821 11.36 2.43412 10.2653 2.43754C5.67693 2.43754 1.94236 6.17211 1.94236 10.7637C1.94236 12.2308 2.32674 13.6654 3.05454 14.9257L1.87305 19.241L6.28711 18.0826C7.50741 18.7473 8.87467 19.0961 10.2643 19.0971H10.2674C14.8558 19.0971 18.5935 15.3625 18.5935 10.771C18.5963 9.67672 18.3823 8.59273 17.9637 7.58165C17.5451 6.57058 16.9304 5.65246 16.1549 4.88034L16.156 4.87929ZM10.2674 17.6919C9.02729 17.6921 7.80992 17.3588 6.7429 16.7268L6.4898 16.5755L3.87056 17.2613L4.57 14.7083L4.40617 14.4457C3.71067 13.3438 3.34313 12.0667 3.3465 10.7637C3.34873 8.92797 4.07915 7.16815 5.37747 5.87042C6.67579 4.57269 8.43594 3.84307 10.2716 3.84168C12.119 3.84168 13.8592 4.56423 15.1646 5.86965C15.8088 6.51152 16.3194 7.2747 16.667 8.11507C17.0145 8.95544 17.1921 9.85636 17.1894 10.7658C17.1863 14.5854 14.0818 17.6909 10.2674 17.6909V17.6919ZM14.0619 12.507C13.855 12.402 12.831 11.9 12.6409 11.8307C12.4508 11.7614 12.3122 11.7256 12.1715 11.9357C12.0339 12.1426 11.6338 12.612 11.5119 12.7528C11.3901 12.8903 11.2693 12.9103 11.0624 12.8053C10.8555 12.7002 10.1824 12.4808 9.38839 11.7719C8.77087 11.2205 8.35183 10.5379 8.23001 10.331C8.10818 10.1241 8.21635 10.0096 8.32243 9.90773C8.418 9.81531 8.52932 9.66513 8.63434 9.5433C8.73936 9.42148 8.77192 9.33641 8.84123 9.19568C8.91055 9.0581 8.87694 8.93628 8.82443 8.83125C8.77192 8.72623 8.35498 7.70227 8.18485 7.28534C8.01786 6.87785 7.84353 6.93457 7.7154 6.92721C7.59358 6.92091 7.456 6.92091 7.31842 6.92091C7.18084 6.92091 6.95399 6.97342 6.7639 7.18032C6.57382 7.38721 6.03505 7.89236 6.03505 8.91632C6.03505 9.94028 6.77966 10.9285 6.88468 11.0693C6.9897 11.2068 8.35183 13.3104 10.4386 14.2105C10.9343 14.4237 11.3218 14.5518 11.6233 14.6505C12.1221 14.808 12.5747 14.7849 12.9329 14.7324C13.333 14.6736 14.1637 14.2304 14.3381 13.7442C14.5124 13.2579 14.5124 12.842 14.4599 12.7559C14.4105 12.6635 14.273 12.612 14.0629 12.506L14.0619 12.507Z" fill="#664EF9"/>
</svg>
