<svg width="31" height="31" viewBox="0 0 31 31" fill="none" xmlns="http://www.w3.org/2000/svg">
<path d="M15.8047 5.66748C10.2827 5.66748 5.80566 10.1445 5.80566 15.6665C5.80566 20.6565 9.46166 24.7925 14.2427 25.5455V18.5575H11.7027V15.6665H14.2427V13.4635C14.2427 10.9555 15.7357 9.57248 18.0187 9.57248C19.1127 9.57248 20.2587 9.76748 20.2587 9.76748V12.2265H18.9947C17.7547 12.2265 17.3667 12.9985 17.3667 13.7895V15.6645H20.1377L19.6947 18.5555H17.3667V25.5435C22.1477 24.7945 25.8037 20.6575 25.8037 15.6665C25.8037 10.1445 21.3267 5.66748 15.8047 5.66748V5.66748Z" fill="currentColor"/>
</svg>
