<svg width="31" height="31" viewBox="0 0 31 31" fill="none" xmlns="http://www.w3.org/2000/svg">
<path d="M15.8055 9.90883C12.4803 9.90883 9.79671 12.5924 9.79671 15.9176C9.79671 19.2428 12.4803 21.9264 15.8055 21.9264C19.1307 21.9264 21.8143 19.2428 21.8143 15.9176C21.8143 12.5924 19.1307 9.90883 15.8055 9.90883ZM15.8055 19.8229C13.6551 19.8229 11.9002 18.068 11.9002 15.9176C11.9002 13.7672 13.6551 12.0123 15.8055 12.0123C17.9559 12.0123 19.7108 13.7672 19.7108 15.9176C19.7108 18.068 17.9559 19.8229 15.8055 19.8229ZM22.0604 8.26235C21.284 8.26235 20.6571 8.8893 20.6571 9.66567C20.6571 10.442 21.284 11.069 22.0604 11.069C22.8367 11.069 23.4637 10.445 23.4637 9.66567C23.4639 9.48132 23.4278 9.29873 23.3573 9.12837C23.2869 8.958 23.1835 8.80321 23.0532 8.67285C22.9228 8.5425 22.768 8.43914 22.5977 8.3687C22.4273 8.29826 22.2447 8.26211 22.0604 8.26235V8.26235ZM27.5184 15.9176C27.5184 14.3004 27.533 12.6979 27.4422 11.0836C27.3514 9.20864 26.9237 7.54457 25.5526 6.17348C24.1785 4.79946 22.5174 4.37465 20.6424 4.28383C19.0252 4.19301 17.4227 4.20766 15.8084 4.20766C14.1912 4.20766 12.5887 4.19301 10.9744 4.28383C9.09944 4.37465 7.43538 4.80238 6.06429 6.17348C4.69026 7.5475 4.26546 9.20864 4.17464 11.0836C4.08382 12.7008 4.09847 14.3034 4.09847 15.9176C4.09847 17.5319 4.08382 19.1373 4.17464 20.7516C4.26546 22.6266 4.69319 24.2907 6.06429 25.6618C7.43831 27.0358 9.09944 27.4606 10.9744 27.5514C12.5916 27.6422 14.1942 27.6276 15.8084 27.6276C17.4256 27.6276 19.0282 27.6422 20.6424 27.5514C22.5174 27.4606 24.1815 27.0329 25.5526 25.6618C26.9266 24.2877 27.3514 22.6266 27.4422 20.7516C27.536 19.1373 27.5184 17.5348 27.5184 15.9176V15.9176ZM24.9403 22.8258C24.7264 23.359 24.4686 23.7575 24.0555 24.1676C23.6424 24.5807 23.2469 24.8385 22.7137 25.0524C21.1727 25.6647 17.5135 25.527 15.8055 25.527C14.0975 25.527 10.4354 25.6647 8.89436 25.0553C8.36116 24.8415 7.96272 24.5836 7.55257 24.1706C7.13948 23.7575 6.88167 23.362 6.6678 22.8288C6.05843 21.2848 6.19612 17.6256 6.19612 15.9176C6.19612 14.2096 6.05843 10.5475 6.6678 9.00649C6.88167 8.47328 7.13948 8.07485 7.55257 7.66469C7.96565 7.25453 8.36116 6.99379 8.89436 6.77992C10.4354 6.17055 14.0975 6.30824 15.8055 6.30824C17.5135 6.30824 21.1756 6.17055 22.7166 6.77992C23.2498 6.99379 23.6483 7.2516 24.0584 7.66469C24.4715 8.07778 24.7293 8.47328 24.9432 9.00649C25.5526 10.5475 25.4149 14.2096 25.4149 15.9176C25.4149 17.6256 25.5526 21.2848 24.9403 22.8258Z" fill="currentColor"/>
</svg>
