<svg width="31" height="31" viewBox="0 0 31 31" fill="none" xmlns="http://www.w3.org/2000/svg">
<path d="M27.2554 9.61556C27.4231 9.06859 27.2554 8.66748 26.4625 8.66748H23.836C23.1676 8.66748 22.8622 9.01448 22.6946 9.39559C22.6946 9.39559 21.3591 12.5939 19.4668 14.6676C18.8559 15.2711 18.5769 15.4616 18.2439 15.4616C18.0774 15.4616 17.8355 15.2711 17.8355 14.7241V9.61556C17.8355 8.9592 17.6427 8.66748 17.0857 8.66748H12.9585C12.5417 8.66748 12.2902 8.97096 12.2902 9.26032C12.2902 9.88139 13.2363 10.0249 13.3333 11.7752V15.5722C13.3333 16.4038 13.1812 16.5556 12.8459 16.5556C11.956 16.5556 9.79056 13.3455 8.50543 9.67084C8.25511 8.95684 8.0024 8.66866 7.33169 8.66866H4.70633C3.95538 8.66866 3.80566 9.01566 3.80566 9.39677C3.80566 10.0814 4.69555 13.469 7.9509 17.9494C10.1211 21.0089 13.1765 22.6675 15.9599 22.6675C17.6283 22.6675 17.8343 22.2993 17.8343 21.6641V19.3516C17.8343 18.6152 17.9936 18.467 18.5218 18.467C18.9098 18.467 19.5781 18.6599 21.1363 20.1338C22.9161 21.8817 23.2108 22.6663 24.2108 22.6663H26.8362C27.586 22.6663 27.9608 22.2981 27.7452 21.5712C27.5093 20.8478 26.6589 19.795 25.5307 18.5493C24.9175 17.8389 24.0012 17.0743 23.7222 16.692C23.3329 16.1992 23.4455 15.9815 23.7222 15.544C23.7234 15.5451 26.9224 11.12 27.2554 9.61556V9.61556Z" fill="currentColor"/>
</svg>
